<svg width="2212" height="359" viewBox="0 0 2212 359" fill="none" xmlns="http://www.w3.org/2000/svg">
<path d="M1743 182.4C1747.1 180.5 1753.7 178.1 1757.5 177.1C1762.1 175.9 1768 175.2 1775 175.2C1780.8 175.2 1788.7 175.8 1792.5 176.6C1796.3 177.4 1802.9 179.7 1807 181.7C1811.1 183.7 1816.7 186.9 1824.1 192.6L1823.6 202.1C1823.3 207.3 1822.7 243.7 1821.5 354.1H1812.7C1806.3 354.1 1803.6 353.7 1802.5 352.6C1801.2 351.3 1801 344.1 1801 300.4C1801 261.8 1800.7 248.4 1799.7 244.6C1799 241.9 1797.4 237.6 1796.3 235.1C1795.1 232.6 1792.2 228.6 1789.8 226.2C1787.4 223.8 1783.2 220.7 1780.5 219.4C1777.6 218.1 1772.6 216.8 1768.5 216.5C1764.5 216.1 1759.3 216.3 1756.2 217C1753.4 217.6 1748.6 219.2 1745.8 220.5C1742.9 221.8 1738 225.1 1735 227.9C1732 230.6 1728.1 235.4 1726.3 238.7C1724.3 242.4 1722.7 247.2 1722.1 251.6C1721.5 255.6 1721 278.4 1721 305.1C1721 340.3 1720.7 351.9 1719.8 352.9C1719 353.7 1715.1 354.1 1696.5 354.1L1697.2 334.4C1697.6 323.5 1698.2 285.8 1698.5 250.6C1698.8 215.4 1699.3 184.7 1700 178.1H1706C1711.1 178.1 1712.2 178.4 1713.4 180.3C1714.1 181.6 1715.8 185.8 1717 189.6C1718.3 193.4 1719.3 196.7 1719.4 196.9C1719.4 197.1 1723.1 194.6 1727.5 191.5C1731.9 188.4 1738.9 184.3 1743 182.4Z" fill="white"/>
<path d="M507.5 179.6C510.2 178.7 515.4 177.3 519 176.6C522.6 175.9 530.1 175.2 535.8 175.2C541.8 175.1 549 175.8 553.2 176.7C557.2 177.6 563.7 179.8 567.5 181.7C571.3 183.6 576.9 187.1 579.7 189.6C582.6 192.1 585.2 194 585.5 193.8C585.8 193.7 586.7 190.9 587.6 187.6C588.5 184.3 589.9 180.8 590.8 179.8C592 178.5 594 178 597.8 178.1C601.6 178.1 602.8 178.4 602.3 179.3C601.9 180 601.1 219.1 600.6 266.1C600 313.1 599.8 351.7 600.2 351.8C600.7 352 600.8 352.6 600.5 353.1C600.2 353.6 598.3 354.1 596.2 354.1C594.2 354.1 591.7 353.6 590.7 352.9C589.7 352.2 588.2 348.6 585.5 338.2L579.5 343.2C576.2 345.9 570.8 349.4 567.5 351C564.2 352.7 558.6 354.8 555 355.8C550.2 357.1 545.1 357.5 535.5 357.4C525.7 357.4 520.5 356.8 514.5 355.2C510.1 354.1 502.5 351.1 497.5 348.7C492.5 346.3 485.1 341.7 481 338.4C476.9 335.2 471.2 329.7 468.3 326.1C465.4 322.5 463 319.3 463 318.9C463 318.4 463.5 318.3 464 318.6C464.6 318.9 465.2 311.9 465.5 298.9C465.8 287.7 466.1 263.5 466.2 244.9C466.4 226.4 466.2 211.5 465.7 211.8C465.3 212 465 211.6 465 210.9C465.1 210.2 468.3 206.3 472.3 202.3C476.3 198.2 482.4 193 486 190.6C489.6 188.3 494.7 185.2 497.5 183.8C500.2 182.5 504.7 180.6 507.5 179.6Z" fill="white"/>
<path d="M777.3 206.6C777.7 198.9 777.9 188.7 777.8 183.8L777.5 175.1L781 175.7C782.9 176 787 176.9 790 177.8C793 178.6 798.7 180.9 802.5 182.9C807.3 185.4 812 189 817.5 194.5C823.7 200.7 826.5 204.6 829.8 211.1C832.1 215.8 835 223.2 836.2 227.6C838.3 235.3 838.4 237.7 838.8 293.1C839.2 345.8 839.1 350.7 837.5 352.3C836 353.9 833.6 354.1 816.4 354.1C800.5 354.1 796.7 353.8 795.5 352.6C794.2 351.3 794 344.3 794 301.8C794 271.6 793.6 250.5 793 247.1C792.4 244.1 790.7 238.9 789.2 235.7C787.5 232 784.6 228.1 776.5 220.6L777.3 206.6Z" fill="white"/>
<path d="M892.6 200.6C895.3 197.8 900.5 193.6 904 191.3C907.4 189 910.7 187 911.3 187C911.9 187 912 208.4 911.6 247.3C911.3 280.4 910.7 315.9 909.5 344.9L907 343.5C905.6 342.8 901.4 339.6 897.6 336.4C893.8 333.2 888.3 327.4 885.3 323.5C882.4 319.7 878.2 313.2 876.1 309C873.9 304.9 871 297.5 869.5 292.5C867.5 285.6 866.7 280.6 866.3 270.5C865.9 260.7 866.2 255.3 867.5 248.5C868.4 243.6 870.7 235.7 872.6 231C874.5 226.4 878.7 218.7 881.8 214.1C885 209.4 889.8 203.3 892.6 200.6Z" fill="white"/>
<path d="M1877.2 179.4C1878.1 178.5 1886.7 178.1 1908 177.9C1924.2 177.7 1937.7 177.5 1938 177.3C1938.3 177.2 1938.1 183.5 1937.7 191.4C1937.3 199.2 1937.1 208.5 1937.5 218.6L1908 218.3C1891.8 218.2 1877.9 217.8 1877.3 217.6C1876.3 217.2 1876 212.5 1876 198.9C1875.9 185.2 1876.2 180.3 1877.2 179.4Z" fill="white"/>
<path d="M1822.3 282.4C1822.7 242.9 1823.3 206.8 1823.6 202.1L1824.3 193.6L1828.7 198.6C1831.2 201.4 1835.2 207.6 1837.5 212.6C1839.9 217.6 1842.6 224.5 1843.6 228.1C1845.2 233.9 1845.4 240.6 1845.7 293.1C1846.1 348.4 1846 351.7 1844.3 352.9C1843.1 353.7 1838.9 354.1 1821.5 354.1L1822.3 282.4Z" fill="white"/>
<path d="M1904.7 283.1C1920.4 263 1933.8 245.6 1934.6 244.4C1935.4 243.1 1936.3 242.1 1936.6 242.1C1936.8 242.1 1936.7 257.3 1936.3 275.9C1935.6 305 1935.7 309.5 1937 308.7C1937.8 308.2 1937.3 309 1935.9 310.5C1934.5 311.9 1934 313.1 1934.7 313.1C1935.6 313.1 1935.9 316.9 1935.9 328.9C1935.9 337.5 1935.6 346.7 1934.4 354.1H1905.7C1881.5 354.1 1876.7 353.9 1875.4 352.6C1874.2 351.4 1873.9 348.3 1873.9 337.6C1873.9 329.1 1874.4 323.3 1875.1 321.9C1875.7 320.6 1889.1 303.2 1904.7 283.1Z" fill="white"/>
<path d="M1121.5 119.6C1124.8 118.6 1129.5 117.5 1132 117.1C1134.5 116.7 1142.6 116.3 1150 116.2C1159.7 116.1 1163.9 116.4 1164.8 117.3C1165.7 118.2 1166 122.9 1166 134.1C1166 142.6 1165.5 150.3 1165 151.1C1164.3 152.2 1161.3 152.8 1154.3 153.3C1146.9 153.8 1143.9 154.4 1142 155.9C1140.6 157 1138.7 158.9 1137.7 160.2C1136.8 161.5 1135.5 165.5 1134.9 169.1C1134.3 172.7 1134.1 176.2 1134.4 176.8C1134.8 177.8 1138.8 178.1 1149.3 178.1C1159.4 178.1 1163.9 178.4 1164.8 179.3C1165.7 180.3 1166 185.4 1166.1 198.6C1166.1 212.1 1165.8 216.9 1164.8 217.8C1163.9 218.6 1158.5 219.1 1134.5 219.6L1134.2 285.6C1134 335.6 1133.6 351.9 1132.7 352.9C1131.8 353.8 1128 354.2 1107 354.1V343.9C1107 338.2 1107.7 288.1 1108.5 232.6C1109.3 177.1 1110 130.1 1110 128.4C1110 126.5 1109.6 125.3 1109 125.6C1108.5 125.9 1108 125.9 1108 125.6C1108 125.3 1109.7 124.2 1111.7 123.2C1113.8 122.2 1118.2 120.5 1121.5 119.6Z" fill="white"/>
<path d="M1187.9 240.5C1187.8 160.7 1188.1 129.4 1188.9 128C1190 126.2 1191.3 126.1 1209.8 126.1C1224.4 126.1 1229.8 126.4 1230.8 127.3C1231.8 128.3 1232 151.5 1232 240.1C1232 326.3 1231.8 351.9 1230.8 352.9C1229.9 353.8 1224.4 354.1 1210.3 354.1C1194.5 354.1 1190.7 353.8 1189.5 352.6C1188.2 351.3 1188 337.4 1187.9 240.5Z" fill="white"/>
<path d="M1524 181.7C1526.5 180.6 1531.2 178.9 1534.5 178C1537.8 177 1541.3 176.2 1542.2 176.2C1543.9 176.1 1544 177.7 1544.1 216.6L1539.8 218.6C1537.4 219.7 1533 223.1 1530 226.1C1526.9 229.1 1523.2 234.1 1521.8 237.1C1520.4 240.1 1518.9 243.8 1518 248.1L1542.5 248.6L1543 282.1H1530.5C1518 282.1 1518 282.1 1518.6 284.3C1519 285.6 1520.3 288.8 1521.5 291.6C1522.8 294.3 1526 299 1528.7 302C1531.3 305 1535.4 308.7 1542 313.1V356.6L1539.3 355.9C1537.7 355.6 1532.9 353.9 1528.5 352.2C1524.1 350.5 1516.9 346.8 1512.5 343.9C1508.1 341 1501.8 335.9 1498.5 332.6C1495.2 329.3 1490.1 323 1487.2 318.6C1484.3 314.2 1480.6 307.2 1478.8 303.1C1477.1 299 1474.9 291.5 1473.9 286.6C1472.7 281 1472 273.4 1472 266.6C1472 259.8 1472.7 252.2 1473.9 246.6C1474.9 241.6 1477.1 234.2 1478.6 230.1C1480.2 226 1483.6 219.2 1486.2 215.1C1488.7 211 1493.9 204.4 1497.6 200.5C1501.4 196.6 1507.9 191.2 1512 188.5C1516.1 185.9 1521.5 182.8 1524 181.7Z" fill="white"/>
<path d="M1408.4 266.1C1409 219.1 1409.9 180 1410.3 179.3C1410.9 178.5 1414.8 178.1 1424.3 178.1C1431.6 178.1 1438.2 178.6 1439 179.1C1440.3 179.9 1440.5 190.7 1440.7 264.8C1440.9 338.5 1440.8 349.9 1439.5 351.8C1438.1 354 1437.4 354.1 1423 354.1C1411.9 354.1 1407.9 353.8 1407.6 352.8C1407.4 352.2 1407.8 313.1 1408.4 266.1Z" fill="white"/>
<path d="M734.5 183C738.9 180.9 745.9 178.3 750 177.2C755.5 175.7 760.1 175.2 777.5 175.6L777.2 197.6C777 209.7 776.8 219.7 776.7 219.9C776.6 220.1 773.3 219.3 769.5 218.1C765.7 217 760.2 216.1 757.5 216.1C754.7 216.1 749.8 216.8 746.5 217.6C743.2 218.5 738.5 220.4 736 221.8C733.5 223.3 729.5 226.3 727.2 228.5C724.8 230.8 721.5 234.6 720 237.1C718.4 239.6 716.4 244.3 715.5 247.6C714.2 252.7 714 261.3 714 302.6C714.1 341.4 713.8 351.9 712.8 352.8C711.8 353.7 706.3 354 671.6 353.6L670.3 351.1C669.3 349.1 669.1 331 669.3 264.3C669.5 190.7 669.7 179.9 671 179.1C671.8 178.6 679.8 178.1 688.8 178.1C704.5 178.1 705 178.2 706.4 180.4C707.1 181.6 708.8 185.8 710 189.6C711.3 193.4 712.4 196.7 712.6 196.9C712.8 197 716 194.8 719.7 191.9C723.5 189.1 730.1 185.1 734.5 183Z" fill="white"/>
<path d="M602.3 179.4C602.7 178.7 602.5 178 602 177.9C601.4 177.7 605.6 177.7 611.2 177.9C616.9 178 622.4 178.3 623.5 178.6C624.6 178.8 625.8 180 626.2 181.3C626.6 182.6 627 221 627 266.6C627 338.9 626.8 349.9 625.5 351.9C624.1 354 623.3 354.1 612 354.1C604.3 354.1 600.2 353.7 600.5 353.1C600.8 352.6 600.7 352 600.2 351.9C599.8 351.7 600 313.1 600.6 266.1C601.1 219.1 601.9 180 602.3 179.4Z" fill="white"/>
<path d="M1270.9 232.8C1270.8 197 1271.2 181.4 1271.9 180C1273 178.2 1274.3 178.1 1293.3 178.1C1308.3 178.1 1313.8 178.4 1314.8 179.3C1315.8 180.3 1316 191.4 1316 229.6C1316 259.2 1316.4 280.8 1317 284.1C1317.6 287.1 1319.3 292.3 1320.9 295.6C1322.4 298.9 1325.5 303.3 1327.6 305.4C1329.8 307.6 1333.5 310.3 1336 311.6C1338.5 312.9 1343.4 314.5 1347 315.1C1352.3 316.2 1354.8 316.1 1360.5 315.1C1364.3 314.4 1370 312.5 1373 311C1376 309.5 1380.7 306.1 1383.4 303.4C1386.1 300.8 1389.3 296.8 1390.6 294.6C1391.9 292.4 1393.6 287.9 1394.5 284.6C1395.8 279.6 1396 270.8 1396 229.6C1396 192.4 1396.3 180.3 1397.2 179.3C1397.9 178.6 1401 178.1 1411 178.1L1410.1 180.8C1409.7 182.4 1408.9 217.3 1408.4 258.6C1407.9 299.8 1407.5 338.1 1407.5 343.7C1407.5 353 1407.4 353.7 1405.7 353.2C1404.7 352.9 1403.1 350.4 1402.1 347.6C1401 344.8 1399.6 340.7 1397.5 334.3L1391.5 339.1C1388.2 341.8 1381.9 345.7 1377.5 347.9C1373.1 350.1 1366.3 352.9 1362.5 354.1C1358.5 355.3 1351.4 356.4 1346 356.7C1339.7 357.1 1333.8 356.8 1328.5 355.8C1324.1 355 1317.8 353.3 1314.5 352C1311.2 350.8 1305.2 347.4 1301.1 344.7C1296.8 341.8 1291.5 337 1288.8 333.6C1286.1 330.3 1282.5 324.7 1280.6 321.1C1278.7 317.5 1276.3 311.4 1275.1 307.6C1274 303.8 1272.6 296.8 1272 292.1C1271.5 287.4 1271 260.7 1270.9 232.8Z" fill="white"/>
<path d="M2113.3 205.7C2113.7 200.1 2114 190.9 2113.8 185.2L2113.5 174.8L2128 175.4C2139.6 175.8 2144.2 176.4 2151.2 178.5C2156.1 179.9 2162.4 182.3 2165.2 183.7C2168.1 185.2 2173 188.1 2176 190.1C2179 192.2 2184 196.5 2187.1 199.8C2190.2 203 2194.2 207.9 2196.1 210.6C2197.9 213.4 2200.9 219 2202.8 223.1C2204.7 227.2 2207.1 234 2208.1 238.1C2209.2 242.2 2210.5 250.3 2211.1 256.1C2211.6 261.9 2211.8 269.5 2211.4 273.1C2210.9 276.7 2210 280.2 2209.2 280.9C2208.2 281.8 2196.9 282.1 2112.5 282.1V248.1H2167L2166.4 245.4C2166 243.8 2164.6 240.1 2163.2 237.1C2161.8 234.1 2158.3 229.1 2155.4 226.1C2152 222.5 2148.1 219.6 2143.9 217.7C2138.7 215.3 2135.8 214.6 2128.5 214.3C2123.6 214.1 2117.9 214.3 2112.5 215.8L2113.3 205.7Z" fill="white"/>
<path d="M2155 312.9C2158 311.5 2162.1 309.2 2164 307.8C2165.9 306.4 2168.2 305.2 2169 305.2C2169.8 305.2 2171 305.5 2171.6 305.9C2172.2 306.3 2176.5 312 2181.1 318.6C2185.8 325.2 2189.9 331.5 2190.3 332.6C2190.7 333.8 2190.4 335.5 2189.5 336.9C2188.7 338.1 2184.3 341.4 2179.8 344.1C2175.2 346.9 2168.1 350.5 2164 352.1C2159.9 353.6 2153 355.7 2148.8 356.5C2144.2 357.5 2136.1 358.1 2129.3 358.1C2122.8 358.1 2115.8 357.9 2113.8 357.6C2110.2 357.1 2110.1 357 2111 354.6C2111.6 353.2 2112 343.8 2112 315.1L2114.3 315.8C2115.5 316.1 2118.1 316.8 2120 317.3C2121.9 317.7 2127.1 318.1 2131.5 318.1C2135.9 318.1 2141.8 317.5 2144.5 316.8C2147.3 316.1 2152 314.3 2155 312.9Z" fill="white"/>
<path d="M1543.8 196.7C1543.5 177 1543.6 176.2 1545.5 175.7C1546.6 175.4 1554 175.4 1562 175.5C1574 175.8 1578 176.3 1585.3 178.5C1590.1 179.9 1596.4 182.3 1599.3 183.7C1602.1 185.2 1607 188.1 1610 190.1C1613 192.2 1618 196.5 1621.1 199.7C1624.1 203 1628.1 207.9 1630 210.6C1631.9 213.4 1634.8 218.8 1636.6 222.6C1638.4 226.5 1640.8 233.2 1642 237.6C1643.6 243.6 1644.3 249.7 1644.7 262.1C1645.2 276.8 1645.1 278.8 1643.6 280.4C1642 282 1638.2 282.1 1543 282.1L1542.5 248.1H1601L1599.9 244.4C1599.3 242.3 1597.4 238 1595.7 234.7C1593.9 231.5 1590.4 226.9 1587.7 224.5C1585.1 222.1 1580.4 218.9 1577.3 217.4C1572.5 215.1 1569.8 214.6 1561.5 214.3C1553.8 214 1550.6 214.3 1544 217.1L1543.8 196.7Z" fill="white"/>
<path d="M1676.8 266.1C1676.6 193.8 1676.8 180.3 1678 179.3C1678.9 178.5 1683.1 178.1 1700 178.1L1699.5 182.4C1699.3 184.7 1698.8 215.4 1698.5 250.6C1698.2 285.8 1697.6 323.5 1696.5 354.1H1688C1682.5 354.1 1679.1 353.7 1678.2 352.9C1677.2 351.9 1676.9 333.6 1676.8 266.1Z" fill="white"/>
<path d="M1583 315.5C1586 314.5 1591.4 311.7 1595 309.4C1598.6 307 1602.2 305.1 1603 305.1C1603.8 305.1 1605.4 306.1 1606.6 307.3C1607.8 308.6 1612.2 314.6 1616.4 320.6C1622.5 329.3 1624.1 332.2 1623.8 334.6C1623.6 337.1 1622.2 338.4 1615.5 342.9C1611.1 345.8 1604.1 349.6 1600 351.3C1595.9 353 1588.4 355.2 1583.5 356.2C1577.9 357.4 1570.3 358.1 1563.5 358.1C1557.4 358.1 1550.1 357.7 1542 356.6V313.6L1549.3 316C1555.5 318 1557.9 318.2 1567 317.9C1573.6 317.6 1579.5 316.7 1583 315.5Z" fill="white"/>
<path d="M74.8 40.7999C74.7 35.5999 75.1 31.0999 75.5 30.6999C76 30.2999 76.7 31.5999 77.1 33.7999C77.5 35.8999 77.5 40.1999 77.2 43.4999C76.8 46.6999 76.2 49.4999 75.7 49.6999C75.3 49.8999 74.9 45.8999 74.8 40.7999Z" fill="white"/>
<path d="M128.6 59.5999C136.7 52.4999 144.3 46.0999 145.4 45.3999C147.497 44.3013 147.5 44.3996 147.799 54.8578L147.8 54.8999C148 60.7999 147.9 66.9999 147 71.5999L130.8 72.2999C121.8 72.5999 114.4 72.8999 114.2 72.7999C114.1 72.6999 120.6 66.7999 128.6 59.5999Z" fill="white"/>
<path d="M73.8 105.7C73.1 106 73.4 105.5 74.5 104.7C75.6 103.8 76.8 103.1 77.2 103.1C77.7 103.1 78 143.4 78 282.1L144.5 280.9L144.1 319.2C143.9 340.3 143.7 357.7 143.6 357.8C143.6 357.9 127.1 358.1 70.5 358.6L71.1 341.1C71.5 331.5 72.3 276.1 72.9 218.1C73.6 160.1 74.3 110.9 74.5 108.9C74.9 106.1 74.7 105.3 73.8 105.7Z" fill="white"/>
<path d="M112 209.1V175.1V141.1H147L146.5 143.4C146.2 144.6 146 159.9 146 209.1H112Z" fill="white"/>
<path d="M386.5 179C388.2 178.4 391.7 177.2 394.5 176.5C397.2 175.8 403.3 175.2 408 175.2C413.3 175.1 419.3 175.8 424 177C428.1 178 434.8 180.5 438.7 182.5C443.7 185 446.2 186.8 446.6 188.3C447 190 444.9 194.9 438.6 206.6C433.9 215.4 429.3 223 428.3 223.5C427.1 224.1 425.333 223.8 423 222.6C421.1 221.6 417 220 414 219C410.9 217.9 405.8 217.1 402.2 217.1C398.6 217.1 393.8 217.9 390.7 219C387.9 220.1 383.2 223 380.5 225.4C377.7 227.8 374.1 232 372.3 234.7C370.6 237.4 368.1 242.8 366.9 246.6C364.611 253.367 364.6 254.687 364.206 301.911L364.2 302.6C364 338.3 363.5 352 362.7 352.9C361.8 353.9 357.4 354.2 330 354.1L330.6 320.3C330.9 301.8 331.3 262.1 331.5 177.6L343 177.9C349.8 178.1 355 178.7 355.8 179.4C356.5 180.1 358.3 184.2 359.7 188.6C361.1 193 362.5 197 362.9 197.4C363.2 197.8 365.3 196.1 367.5 193.5C369.7 190.9 374.2 186.9 377.5 184.5C380.8 182.2 384.8 179.7 386.5 179Z" fill="white"/>
<path d="M453.1 232.1C454.8 228 457.9 221.6 460.1 218C462.3 214.4 464.6 211.4 465.3 211.4C466.2 211.4 466.4 219 466.2 245C466.1 263.5 465.8 287.7 465.5 298.8C465 317.7 464.9 319 463.3 318.2C462.3 317.8 459.6 313.8 457.3 309.5C455 305.1 451.9 297.5 450.5 292.6C448.4 285.7 447.7 280.6 447.3 270.6C446.9 260.8 447.2 255.4 448.5 248.6C449.4 243.6 451.5 236.2 453.1 232.1Z" fill="white"/>
<path d="M239.3 161.1C239.7 157 240.3 121.3 240.7 81.8999L241.4 10.2L245.2 12.4C247.4 13.6 252 17 255.6 19.9C259.1 22.7 264.1 27.7 266.6 30.9C269.1 34 272.9 39.8 275.1 43.6C277.2 47.4 280.4 54.9 282.1 60.1C285.1 69 285.3 70.6 285.3 84.1C285.3 94.1 284.8 101.1 283.6 106.6C282.6 111 280.4 118 278.7 122.1C277 126.2 274.3 131.9 272.7 134.6C271.1 137.4 267.4 142.8 264.5 146.6C261.5 150.5 256 156 251.8 159.2C247.8 162.2 243.2 165.6 238.6 168.6L239.3 161.1Z" fill="white"/>
<path d="M238 277.1C238.5 238.3 239 198.2 239 187.8V169.1L246.3 172.7C250.3 174.7 257.5 179.3 262.4 183C268.9 187.8 273 191.8 277.3 197.6C280.6 202 284.8 208.7 286.8 212.6C288.7 216.4 291.1 222.1 292.2 225.1C293.2 228.1 294.8 233.7 295.6 237.6C296.5 241.4 297.4 250.2 297.7 257.1C298.1 266.6 297.8 271.8 296.5 278.6C295.6 283.5 293.6 290.7 292 294.6C290.5 298.4 287.5 304.5 285.4 308.1C283.3 311.7 279.4 317.2 276.8 320.3C274.2 323.5 268.5 328.9 264.1 332.3C259.8 335.8 252.1 340.7 247.1 343.3C242.1 346 237.8 348 237.5 347.8C237.2 347.7 237.4 315.9 238 277.1Z" fill="white"/>
<path d="M319.8 266C319.7 193.7 319.8 180.2 321 179.2C321.8 178.6 324.6 178 332.2 178L331.6 241.8C331.3 276.8 330.7 316.4 329.5 354L326 354.1C324.1 354.1 322 353.5 321.3 352.8C320.3 351.8 320 333.5 319.8 266Z" fill="white"/>
<path d="M933.5 177.7C937.3 176.9 941.4 176 942.5 175.7C943.6 175.5 949.2 175.3 955 175.2C962.7 175.1 967.6 175.6 973.5 177.1C977.9 178.3 984.6 180.9 995.1 186.6L995 211.4C995 230.9 994.7 235.9 993.8 235.4C993.1 235 991.6 233.5 990.4 232.1C989.3 230.7 985.9 228 982.9 226C979.9 223.9 974.7 221.4 971.2 220.2C967.1 218.8 962.4 218.1 957.2 218.1C952.3 218.1 947.2 218.8 943 220.1C939.4 221.2 934.1 223.6 931.2 225.6C928.4 227.5 924.1 231.5 921.9 234.4C919.6 237.2 916.6 242 915.4 244.9C914.1 247.7 913 251 913 252.1C913 253.2 912.7 254.3 912.3 254.5C911.8 254.7 911.5 239.4 911.5 186.2L919 182.7C923.1 180.9 929.7 178.6 933.5 177.7Z" fill="white"/>
<path d="M910.1 333.6C910.5 327 910.8 311.8 911 299.8C911.1 285.6 911.6 278.2 912.2 278.6C912.8 278.9 913.2 280.2 913.1 281.4C913 282.6 914.3 286.3 915.9 289.6C917.4 292.9 920.9 298 923.6 301C926.9 304.5 930.8 307.4 935.5 309.7C939.4 311.7 945.6 313.7 949.5 314.3C954.5 315.1 958.3 315.1 963 314.4C966.6 313.8 972 312.4 975 311.2C978 310.1 983.6 306.6 994.4 297.6L993.7 309.1C993.3 315.4 993 326.7 993.1 347.6L986.8 350.8C983.3 352.6 977.6 354.8 974 355.8C969.2 357.1 964.1 357.5 954.5 357.4C944.6 357.4 939.6 356.8 933.5 355.2C929.1 354 921.9 351.4 909.5 345.6L910.1 333.6Z" fill="white"/>
<path d="M147 43.8C147.8 42.9 159.3 32.7 172.5 21.1L196.5 0L204.5 0.5C208.9 0.8 215.9 1.7 220 2.7C224.1 3.6 230.4 5.6 240.5 9.6L240.8 26.6C240.9 36 240.1 112 239 195.6C237.8 279.2 236.7 347.9 236.4 348.4C236.2 348.8 231.2 350.6 225.3 352.5C219.3 354.4 211.1 356.4 207 357C202.9 357.6 186.9 358.3 143.5 358.6L144.1 322.6C144.5 302.8 144.8 285.4 145 281.1H156.7C166 281.1 169.8 280.7 174.5 279.1C177.8 277.9 182.7 275.6 185.4 273.8C188.1 272 192.1 268.6 194.2 266.1C196.9 263 198.8 259.4 200.2 254.6C201.8 249.3 202.2 245.9 201.8 240.6C201.5 236.4 200.5 232 199.3 229.6C198.2 227.4 195 223.6 192.4 221.1C189.7 218.7 184.1 215.1 180 213.1C172.6 209.6 172.4 209.6 158.8 209.6C151.3 209.6 145.3 209.4 145.5 209.1C145.7 208.8 145.9 193.3 146.2 140.6L153.6 140.4C159.6 140.1 162.2 139.5 167.2 137C170.7 135.3 175.7 132.2 178.5 130.2C181.2 128.1 184.9 124.5 186.5 122.1C188.1 119.7 190 115.4 190.7 112.6C191.6 109.1 191.7 106.2 191 102.6C190.4 99.9 188.9 95.4 187.5 92.6C186.2 89.9 183.2 85.5 180.8 82.9C177.8 79.6 174.8 77.6 171 76.3C168 75.2 161.7 73.8 157 73.3C152.3 72.7 147.9 72.6 147.1 72.9C146 73.5 146 73.1 146.9 70.9C147.5 69.3 148 62.7 148 56.1C148 46.8 147.7 44.2 146.7 44.7C146 45.1 146.2 44.7 147 43.8Z" fill="white"/>
<path d="M1001.5 126.7L1004 126C1005.4 125.6 1014.7 125.3 1024.7 125.4C1038.1 125.5 1043.2 125.9 1044.2 126.9C1045.2 127.9 1045.5 149.7 1045.7 238.9C1045.9 335.5 1045.8 349.9 1044.5 351.8C1043 354 1042.5 354.1 1027 354.1C1013.1 354.1 1010.8 353.9 1009.2 352.3C1008.2 351.4 1006.8 347.8 1004.5 338.2L1000.7 341.4C998.6 343.2 995.9 345.3 992.7 347.6L993.3 322.8C993.8 306.5 993.7 298.3 993 298.6C992.5 298.9 993.6 296.7 995.6 293.8C997.5 291 1000 285.7 1001.1 282.1C1002.5 277.7 1003.1 272.7 1003.1 266.6C1003.1 260.4 1002.5 255.6 1001.1 251.1C1000 247.5 997.7 242.5 996 239.8C994.4 237.2 993.5 235.3 994 235.6C994.7 235.9 995 227.6 995 187.1L997.2 188.6C998.5 189.4 999.8 190.1 1000.2 190.1C1000.7 190.1 1001.1 175.8 1001.5 126.7Z" fill="white"/>
<path d="M1100.8 131.7C1103.1 129.1 1106 126.5 1107.2 126.1C1108.4 125.7 1109.5 125.4 1109.6 125.5C1109.8 125.5 1109.3 173.1 1108.5 231.1C1107.7 289.1 1107 340.5 1107 354.1H1099.7C1095.2 354.1 1092 353.7 1091.2 352.9C1090.2 351.9 1090 337.5 1090 219.1H1080.5C1072 219.1 1070.9 218.9 1070 217.1C1069.5 216 1069 207.7 1069 198.6C1069 189.5 1069.5 181.2 1070 180.1C1070.9 178.3 1072 178.1 1090 178.1V167.8C1090 162.2 1090.4 155.1 1091 152.1C1091.6 149.1 1093.1 144.3 1094.3 141.6C1095.6 138.8 1098.5 134.4 1100.8 131.7Z" fill="white"/>
<path d="M17.1 6.6001C19.4 5.0001 23.7 2.8001 26.4 1.9001C29.3 0.900098 34.6 0.200098 38.8 0.100098C43.2 0.100098 48 0.800098 51.3 1.9001C54.1 2.9001 58.5 5.1001 61 6.8001C63.5 8.4001 67.1 11.8001 69 14.2001C70.9 16.6001 73.5 21.1001 74.7 24.1001C76 27.5001 76.5 30.0001 75.9 30.6001C75.4 31.2001 75 36.6001 75.1 42.6001C75.1 53.3001 75 53.7001 71.8 59.0001C70 61.9001 66.7 65.9001 64.5 67.8001C62.3 69.7001 58 72.4001 55 73.9001C50.1 76.2001 48.3 76.5001 39 76.6001C29.6 76.6001 27.9 76.3001 23 73.9001C20 72.4001 15.3 69.3001 12.6 66.9001C9.4 64.0001 6.6 60.2001 4.1 55.2001C0.8 48.3001 0.5 47.0001 0.5 38.7001C0.5 30.6001 0.9 28.9001 3.6 23.1001C5.3 19.5001 8 15.0001 9.7 13.1001C11.4 11.2001 14.7 8.3001 17.1 6.6001Z" fill="white"/>
<path d="M33.1 140.1C51.3 124.4 68.1 110.1 70.3 108.3C72.5 106.5 74.4 105.2 74.5 105.3C74.5 105.5 73.8 159.8 72.9 226.1C71.9 292.4 71.1 349.2 71 358.1H0V168.5L33.1 140.1Z" fill="white"/>
<path d="M1937 212.4C1937 209.2 1937.3 200.2 1937.7 192.4L1938.3 178.1H1975.9C2004.9 178.1 2013.8 178.4 2014.8 179.3C2015.7 180.2 2016 184.6 2016 208.1L2010.8 214.9C2007.9 218.6 1990.8 240.5 1972.7 263.6C1954.6 286.7 1938.9 306.5 1935.8 309.6L1937.2 241.6L1945.6 230.9C1950.2 224.9 1954 219.6 1954 219.1C1954 218.5 1950.5 218.1 1937 218.1V212.4Z" fill="white"/>
<path d="M1935.3 349.4C1935.7 346.8 1936.1 337.6 1936.1 328.9L1936 313.2H1976C2014.7 313.2 2016.1 313.2 2018 315.2C2019.9 317 2020 318.5 2020.1 333.4C2020.1 346.2 2019.7 350.1 2017 354.2H1934.5L1935.3 349.4Z" fill="white"/>
<path d="M2092.5 180.9C2095.2 179.8 2099.7 178.3 2102.5 177.6C2105.2 176.8 2109 176.2 2114 176.1V185.9C2114 191.2 2113.7 200 2112.5 215.3L2106.5 218.4C2103.2 220.1 2098.4 223.6 2095.8 226.3C2093.1 229 2089.4 234.3 2087.5 238.3C2085.6 242.3 2084 246.2 2084 246.8C2084 247.8 2087.7 248.2 2112.5 248.6L2112.8 260.1C2113 266.4 2112.9 274 2112 282.1H2084L2084.6 284.3C2085 285.6 2086.9 289.7 2088.9 293.5C2091.1 297.7 2094.7 302.4 2098 305.5C2101 308.3 2105.4 311.5 2111.9 314.6L2112 333.3C2112 343.7 2111.6 353.2 2110 357.1L2104.3 355.5C2101.1 354.6 2095.8 352.8 2092.5 351.4C2089.2 350 2082.9 346.5 2078.5 343.6C2074.1 340.7 2067.6 335.3 2064 331.7C2060.4 328 2055.1 321.4 2052.3 316.8C2049.4 312.3 2045.7 304.9 2044 300.3C2042.4 295.8 2040.3 287.9 2039.4 282.9C2038.2 276.2 2037.9 270.4 2038.3 262.1C2038.7 255.7 2039.8 246.8 2041 242.1C2042.2 237.4 2044.8 230 2046.9 225.6C2048.9 221.2 2052.1 215.4 2054 212.6C2055.9 209.9 2059 205.7 2060.9 203.3C2062.9 201 2067.2 196.8 2070.5 194.2C2073.8 191.5 2079 187.9 2082 186.1C2085 184.3 2089.7 182 2092.5 180.9Z" fill="white"/>
</svg>
